<svg xmlns="http://www.w3.org/2000/svg" viewBox="0 0 24 24" width="24" height="24"><path d="M18.25 13.25a1.23 1.23 0 0 1-.814 1.167l-4.03 1.49-1.484 4.032a1.243 1.243 0 0 1-2.335 0l-1.493-4.033-4.033-1.484a1.244 1.244 0 0 1 0-2.335l4.033-1.493L9.578 6.56a1.244 1.244 0 0 1 2.335 0l1.493 4.033 4.033 1.484a1.23 1.23 0 0 1 .811 1.172m-4.375-7.5h1.25V7a.625.625 0 1 0 1.25 0V5.75h1.25a.625.625 0 1 0 0-1.25h-1.25V3.25a.625.625 0 1 0-1.25 0V4.5h-1.25a.625.625 0 1 0 0 1.25m6.875 2.5h-.625v-.625a.625.625 0 1 0-1.25 0v.625h-.625a.625.625 0 1 0 0 1.25h.625v.625a.624.624 0 1 0 1.25 0V9.5h.625a.625.625 0 1 0 0-1.25"/></svg>