<svg width="100" height="14" viewBox="0 0 100 14" fill="none" xmlns="http://www.w3.org/2000/svg">
<g clip-path="url(#clip0_897_18750)">
<path d="M0 7.03356V7C0 3.35284 2.79054 0.5 6.58971 0.5C9.02163 0.5 10.6354 1.47332 11.7449 2.87177C11.8346 2.98365 11.8122 3.16265 11.6889 3.25215L9.49232 4.94148C9.38025 5.03098 9.21215 5.00861 9.12249 4.89673C8.45007 4.13597 7.65438 3.63253 6.55609 3.63253C4.8078 3.63253 3.56382 5.13167 3.56382 6.95525V6.98881C3.56382 8.86833 4.79659 10.3339 6.55609 10.3339C7.76645 10.3339 8.51731 9.80809 9.22335 9.00258C9.31301 8.89071 9.46991 8.87952 9.59319 8.95783L11.7786 10.5129C11.9018 10.6024 11.9354 10.7814 11.8346 10.8933C10.6691 12.4036 9.10008 13.4888 6.47764 13.4888C2.90261 13.4888 0.022414 10.759 0.022414 7.02238L0 7.03356Z" fill="#1E1E1E"/>
<path d="M57.4246 7.03356V7C57.4246 3.35284 60.2152 0.5 64.0143 0.5C66.4463 0.5 68.0601 1.47332 69.1696 2.87177C69.2592 2.98365 69.2368 3.16265 69.1135 3.25215L66.917 4.94148C66.8049 5.03098 66.6368 5.00861 66.5471 4.89673C65.8747 4.13597 65.079 3.63253 63.9807 3.63253C62.2324 3.63253 60.9885 5.13167 60.9885 6.95525V6.98881C60.9885 8.86833 62.2212 10.3339 63.9807 10.3339C65.1911 10.3339 65.9419 9.80809 66.648 9.00258C66.7376 8.89071 66.8945 8.87952 67.0178 8.95783L69.2032 10.5129C69.3265 10.6024 69.3601 10.7814 69.2592 10.8933C68.0937 12.4036 66.5247 13.4888 63.9023 13.4888C60.3272 13.4888 57.447 10.759 57.447 7.02238L57.4246 7.03356Z" fill="#1E1E1E"/>
<path d="M47.8314 8.58864V10.0207C47.8314 10.1773 47.9547 10.3003 48.1004 10.3115H54.141C54.3315 10.3115 54.466 10.5129 54.3875 10.6919L53.3453 13.0749C53.3005 13.1756 53.2108 13.2427 53.0987 13.2427H44.6599C44.5142 13.2427 44.3909 13.1196 44.3909 12.9742V8.58864C44.3909 8.4432 44.2676 8.32014 44.1219 8.32014H42.6874C42.4969 8.32014 42.3624 8.11876 42.4409 7.93976L43.3935 5.74699C43.4383 5.6463 43.528 5.57917 43.64 5.57917H44.1219C44.2676 5.57917 44.3909 5.45611 44.3909 5.31067V1.01463C44.3909 0.869191 44.5142 0.746127 44.6599 0.746127H54.0513C54.2418 0.746127 54.3763 0.947504 54.2979 1.12651L53.2556 3.50947C53.2108 3.61016 53.1211 3.67728 53.0091 3.67728H48.1004C47.9547 3.67728 47.8314 3.80034 47.8314 3.94578V5.31067C47.8314 5.45611 47.9547 5.57917 48.1004 5.57917H52.7737C52.9642 5.57917 53.0987 5.78055 53.0203 5.95955L52.0677 8.15232C52.0229 8.25301 51.9332 8.32014 51.8211 8.32014H48.1004C47.9547 8.32014 47.8314 8.4432 47.8314 8.58864Z" fill="#1E1E1E"/>
<path d="M19.276 10.0207V8.58864C19.276 8.4432 19.3993 8.32014 19.545 8.32014H23.2657C23.3778 8.32014 23.4674 8.25301 23.5123 8.15232L24.4649 5.95955C24.5433 5.78055 24.4088 5.57917 24.2183 5.57917H19.545C19.3993 5.57917 19.276 5.45611 19.276 5.31067V3.94578C19.276 3.80034 19.3993 3.67728 19.545 3.67728H24.4537C24.5657 3.67728 24.6554 3.61016 24.7002 3.50947L25.7425 1.12651C25.8209 0.947504 25.6864 0.746127 25.4959 0.746127H16.1044C15.9588 0.746127 15.8355 0.869191 15.8355 1.01463V5.31067C15.8355 5.45611 15.7122 5.57917 15.5665 5.57917H15.0846C14.9725 5.57917 14.8829 5.6463 14.8381 5.74699L13.8855 7.93976C13.807 8.11876 13.9415 8.32014 14.132 8.32014H15.5665C15.7122 8.32014 15.8355 8.4432 15.8355 8.58864V12.9742C15.8355 13.1196 15.9588 13.2427 16.1044 13.2427H24.5433C24.6554 13.2427 24.745 13.1756 24.7899 13.0749L25.8321 10.6919C25.9106 10.5129 25.7761 10.3115 25.5856 10.3115H19.545C19.3993 10.3003 19.276 10.1773 19.276 10.0207Z" fill="#1E1E1E"/>
<path d="M30.427 0.746127H40.1547C40.3452 0.746127 40.4797 0.947504 40.4012 1.12651L39.3141 3.62134C39.2693 3.72203 39.1796 3.78916 39.0676 3.78916H36.7365C36.5908 3.78916 36.4676 3.91222 36.4676 4.05766V12.9854C36.4676 13.1308 36.3443 13.2539 36.1986 13.2539H33.2736C33.1279 13.2539 33.0046 13.1308 33.0046 12.9854V4.05766C33.0046 3.91222 32.8813 3.78916 32.7356 3.78916H29.3399C29.1494 3.78916 29.0149 3.58778 29.0934 3.40878L30.1804 0.913942C30.2253 0.813253 30.3149 0.746127 30.427 0.746127Z" fill="#1E1E1E"/>
<path fill-rule="evenodd" clip-rule="evenodd" d="M90.9 9.05834H89.2414V9.04715C89.1405 9.04715 89.0509 8.99122 89.006 8.9129L87.5716 6.54113C87.5155 6.45163 87.4371 6.40688 87.3362 6.40688H87.1681C87.0224 6.40688 86.8991 6.52994 86.8991 6.67538V8.76746C86.8991 8.9129 86.7759 9.03597 86.6302 9.03597H85.0948C84.9491 9.03597 84.8258 8.9129 84.8258 8.76746V1.74165C84.8258 1.59621 84.9491 1.47314 85.0948 1.47314H88.4793C89.8802 1.47314 91.2923 2.24509 91.2923 3.94561C91.2923 5.0308 90.7207 5.73562 89.9474 6.10481C89.8017 6.17194 89.7569 6.35094 89.8354 6.48519L91.1354 8.6444C91.2474 8.8234 91.113 9.05834 90.9 9.05834ZM87.1681 3.1401C87.0224 3.1401 86.8991 3.26316 86.8991 3.4086V4.50499C86.8991 4.65043 87.0224 4.77349 87.1681 4.77349H88.0086C88.7707 4.77349 89.1629 4.50499 89.1629 3.95679C89.1629 3.4086 88.7707 3.1401 88.0086 3.1401H87.1681Z" fill="#1E1E1E"/>
<path d="M82.1922 1.48433H76.6335V1.49552C76.4878 1.49552 76.3646 1.61858 76.3646 1.76402V8.75628C76.3646 8.90172 76.4878 9.02478 76.6335 9.02478H82.2482C82.3939 9.02478 82.5172 8.90172 82.5172 8.75628V7.51445C82.5172 7.36901 82.3939 7.24595 82.2482 7.24595H78.718C78.5723 7.24595 78.4491 7.12289 78.4491 6.97745V6.31738C78.4491 6.17194 78.5723 6.04888 78.718 6.04888H81.3965C81.5422 6.04888 81.6655 5.92581 81.6655 5.78037V4.6728C81.6655 4.52736 81.5422 4.4043 81.3965 4.4043H78.718C78.5723 4.4043 78.4491 4.28123 78.4491 4.1358V3.52048C78.4491 3.37504 78.5723 3.25197 78.718 3.25197H82.1922C82.3379 3.25197 82.4612 3.12891 82.4612 2.98347V1.75283C82.4612 1.6074 82.3379 1.48433 82.1922 1.48433Z" fill="#1E1E1E"/>
<path fill-rule="evenodd" clip-rule="evenodd" d="M96.9742 1.48433H93.8026C93.6569 1.48433 93.5337 1.6074 93.5337 1.75283V8.77865C93.5337 8.92409 93.6569 9.04715 93.8026 9.04715H95.338C95.4837 9.04715 95.607 8.92409 95.607 8.77865V7.04457C95.607 6.89913 95.7302 6.77607 95.8759 6.77607H96.963C98.476 6.77607 100 5.95938 100 4.12461C100 2.28984 98.476 1.47314 96.963 1.47314L96.9742 1.48433ZM96.5147 5.13149H95.8871C95.7415 5.13149 95.6182 5.00843 95.6182 4.86299V3.41979C95.6182 3.27435 95.7415 3.15129 95.8871 3.15129H96.5147C97.4225 3.15129 97.8932 3.48691 97.8932 4.14698C97.8932 4.80705 97.4337 5.14268 96.5147 5.14268V5.13149Z" fill="#1E1E1E"/>
<path d="M76.5327 11.0609H99.5854C99.776 11.0609 99.9105 11.2623 99.832 11.4413L99.4398 12.3587C99.3949 12.4594 99.3053 12.5265 99.1932 12.5265H76.1404C75.9499 12.5265 75.8154 12.3251 75.8939 12.1461L76.2861 11.2287C76.3309 11.128 76.4206 11.0609 76.5327 11.0609Z" fill="#1E1E1E"/>
</g>
<defs>
<clipPath id="clip0_897_18750">
<rect width="100" height="13" fill="white" transform="translate(0 0.5)"/>
</clipPath>
</defs>
</svg>
