<svg xmlns="http://www.w3.org/2000/svg" viewBox="0 0 24 24" width="24" height="24"><path d="M17.833 9.5q-1.187 0-2.062-.708A3.4 3.4 0 0 1 14.604 7H9.375a3.27 3.27 0 0 1-.865 1.51A3.27 3.27 0 0 1 7 9.375v5.23q1.084.29 1.792 1.166.708.874.708 2.062a3.2 3.2 0 0 1-.98 2.355 3.2 3.2 0 0 1-2.353.979 3.2 3.2 0 0 1-2.354-.98 3.2 3.2 0 0 1-.98-2.354q0-1.187.709-2.062a3.4 3.4 0 0 1 1.791-1.167V9.375a3.4 3.4 0 0 1-1.791-1.167 3.15 3.15 0 0 1-.709-2.041q0-1.375.98-2.355a3.2 3.2 0 0 1 2.354-.979q1.166 0 2.041.709.876.709 1.167 1.791h5.23a3.4 3.4 0 0 1 1.166-1.791q.874-.71 2.062-.709a3.2 3.2 0 0 1 2.355.98 3.2 3.2 0 0 1 .979 2.354 3.2 3.2 0 0 1-.98 2.354 3.2 3.2 0 0 1-2.354.979m0 11.667a3.2 3.2 0 0 1-2.354-.98 3.2 3.2 0 0 1-.979-2.354q0-1.374.98-2.354a3.2 3.2 0 0 1 2.353-.979 3.2 3.2 0 0 1 2.355.98 3.2 3.2 0 0 1 .979 2.353 3.2 3.2 0 0 1-.98 2.355 3.2 3.2 0 0 1-2.354.979"/></svg>