<svg xmlns="http://www.w3.org/2000/svg" viewBox="0 0 24 24" width="24" height="24"><path d="M5.339 17.823v-1.667h1.666v-5.833q0-.687.177-1.354t.532-1.271l2.624 2.625H8.006L3.172 5.49l1.167-1.167 15.333 15.333-1.167 1.167-3.041-3zm11.666-3.208L8.84 6.448a5.5 5.5 0 0 1 .895-.583q.48-.25 1.021-.375v-.584q0-.52.365-.885t.885-.365.886.365q.364.365.364.885v.584a4.8 4.8 0 0 1 2.708 1.76 4.88 4.88 0 0 1 1.042 3.073zm-5 5.708q-.687 0-1.177-.49a1.6 1.6 0 0 1-.49-1.177h3.334q0 .688-.49 1.178-.49.489-1.177.489"/></svg>