<svg xmlns="http://www.w3.org/2000/svg" viewBox="0 0 24 24" width="24" height="24"><path d="M8.674 20.333q-.687 0-1.177-.49a1.6 1.6 0 0 1-.49-1.176q0-.688.49-1.178Q7.987 17 8.674 17t1.177.49.49 1.177-.49 1.177-1.177.49m8.334 0q-.688 0-1.177-.49a1.6 1.6 0 0 1-.49-1.176q0-.688.49-1.178Q16.32 17 17.008 17q.687 0 1.177.49.49.489.49 1.177 0 .687-.49 1.177t-1.177.49m-9.834-15h12.292q.48 0 .73.427a.84.84 0 0 1 .02.865l-2.958 5.333a1.67 1.67 0 0 1-.615.646 1.6 1.6 0 0 1-.844.23H9.591L8.674 14.5h10v1.667h-10q-.937 0-1.416-.823-.48-.823-.042-1.636l1.125-2.041-3-6.334H3.674V3.667h2.709z"/></svg>