<svg xmlns="http://www.w3.org/2000/svg" viewBox="0 0 24 24" width="24" height="24"><path d="M8.708 20.125H5.542q-.688 0-1.177-.49a1.6 1.6 0 0 1-.49-1.177v-3.166q1 0 1.75-.636.75-.635.75-1.614t-.75-1.615a2.62 2.62 0 0 0-1.75-.635V7.625q0-.687.49-1.177.489-.49 1.177-.49h3.333q0-.875.604-1.479a2.01 2.01 0 0 1 1.48-.604q.874 0 1.479.604.603.604.604 1.48h3.333q.687 0 1.177.489.49.49.49 1.177v3.333q.874 0 1.479.604.604.604.604 1.48 0 .874-.604 1.479a2 2 0 0 1-1.48.604v3.333q0 .688-.489 1.177-.49.49-1.177.49h-3.167q0-1.042-.656-1.77-.656-.73-1.594-.73t-1.593.73q-.657.728-.657 1.77"/></svg>