<svg xmlns="http://www.w3.org/2000/svg" viewBox="0 0 24 24" width="24" height="24"><path d="M5.333 19.083a2.4 2.4 0 0 1-1.77-.729 2.4 2.4 0 0 1-.73-1.77q0-.542.209-1.032.208-.489.625-.844V10.75h1.666v-5H12l3.917 9.23q.125.291.187.582.063.292.063.605a2.8 2.8 0 0 1-.855 2.062 2.8 2.8 0 0 1-2.062.854q-.855 0-1.573-.448a2.77 2.77 0 0 1-1.073-1.218H7.688q-.272.75-.917 1.208-.646.459-1.438.458M17 18.25V4.917h1.667v11.666h2.5v1.667zm-11.667-.833q.354 0 .594-.24t.24-.594a.8.8 0 0 0-.24-.593.8.8 0 0 0-.594-.24.8.8 0 0 0-.593.24.8.8 0 0 0-.24.593q0 .355.24.594.24.24.593.24m7.917 0q.52 0 .886-.365.364-.364.364-.885 0-.522-.364-.886a1.2 1.2 0 0 0-.886-.364q-.52 0-.885.364a1.2 1.2 0 0 0-.365.886q0 .52.365.885.364.365.885.365M9.438 13.25h3.937l-2.48-5.833H7v3.333z"/></svg>