<svg xmlns="http://www.w3.org/2000/svg" viewBox="0 0 24 24" width="24" height="24"><path d="M12 20.75a7.3 7.3 0 0 1-2.927-.594 7.6 7.6 0 0 1-2.375-1.604 7.6 7.6 0 0 1-1.604-2.375A7.3 7.3 0 0 1 4.5 13.25q0-1.562.594-2.927.593-1.364 1.604-2.375a7.6 7.6 0 0 1 2.375-1.604A7.3 7.3 0 0 1 12 5.75h.125l-1.292-1.292L12 3.25l3.333 3.333L12 9.917l-1.167-1.209 1.292-1.291H12q-2.437 0-4.135 1.698T6.167 13.25t1.698 4.135T12 19.083t4.135-1.698 1.698-4.135H19.5a7.3 7.3 0 0 1-.594 2.927 7.6 7.6 0 0 1-1.604 2.375 7.6 7.6 0 0 1-2.375 1.604A7.3 7.3 0 0 1 12 20.75"/></svg>