<svg xmlns="http://www.w3.org/2000/svg" viewBox="0 0 24 24" width="24" height="24"><path d="m18.292 15.125-1.25-1.292a2.54 2.54 0 0 0 1.354-.885q.52-.657.52-1.531a2.4 2.4 0 0 0-.729-1.771 2.4 2.4 0 0 0-1.77-.73h-3.334V7.25h3.334q1.729 0 2.947 1.219 1.22 1.218 1.22 2.948a4.1 4.1 0 0 1-.615 2.187 4 4 0 0 1-1.677 1.521m-2.834-2.875-1.666-1.667h1.791v1.667zm3.292 8L3.417 4.917 4.583 3.75l15.334 15.333zm-7.333-4.667H8.083q-1.728 0-2.948-1.218-1.218-1.22-1.218-2.948 0-1.438.875-2.563a4.06 4.06 0 0 1 2.25-1.479l1.541 1.542h-.5a2.4 2.4 0 0 0-1.77.729 2.4 2.4 0 0 0-.73 1.77q0 1.042.73 1.771.729.73 1.77.73h3.334zm-2.5-3.333v-1.667h1.354l1.646 1.667z"/></svg>