<svg xmlns="http://www.w3.org/2000/svg" viewBox="0 0 24 24" width="24" height="24"><path d="m18.041 15.695-1.25-1.292a2.54 2.54 0 0 0 1.354-.886q.52-.655.521-1.53a2.4 2.4 0 0 0-.73-1.772 2.4 2.4 0 0 0-1.77-.729h-3.333V7.82h3.333q1.729 0 2.948 1.22 1.219 1.218 1.219 2.947 0 1.188-.615 2.188a4 4 0 0 1-1.677 1.52m-2.833-2.876-1.667-1.666h1.792v1.666zm3.291 8L3.166 5.487 4.333 4.32l15.333 15.334zm-7.333-4.666H7.833q-1.73 0-2.948-1.219-1.22-1.218-1.219-2.948 0-1.437.875-2.562a4.06 4.06 0 0 1 2.25-1.48l1.542 1.542h-.5a2.4 2.4 0 0 0-1.771.73 2.4 2.4 0 0 0-.73 1.77q0 1.042.73 1.771a2.4 2.4 0 0 0 1.77.73h3.334zm-2.5-3.333v-1.667h1.354l1.646 1.666z"/></svg>