<svg xmlns="http://www.w3.org/2000/svg" viewBox="0 0 24 24" width="24" height="24"><path d="M18.625 19.5q-2.604 0-5.146-1.135t-4.625-3.22-3.219-4.624T4.5 5.375q0-.375.25-.625a.85.85 0 0 1 .625-.25H8.75q.291 0 .52.198a.76.76 0 0 1 .272.469l.541 2.916q.042.334-.02.563a.9.9 0 0 1-.23.396l-2.02 2.041q.415.77.99 1.49.572.719 1.26 1.385.645.645 1.354 1.198.708.552 1.5 1.01l1.958-1.958q.187-.187.49-.28.302-.094.593-.053l2.875.583a.97.97 0 0 1 .48.302.73.73 0 0 1 .187.49v3.375q0 .375-.25.625a.85.85 0 0 1-.625.25"/></svg>