<svg xmlns="http://www.w3.org/2000/svg" viewBox="0 0 24 24" width="24" height="24"><path d="M11.76 11.57c.32-.14.69.01.82.33l1.72 4.04c.09.19.07.42-.05.59-.11.17-.31.28-.52.28h-1.99c-.34 0-.62-.28-.62-.62s.28-.62.62-.62h1.04l-1.35-3.18c-.14-.32.01-.69.33-.82M9.08 13.03c.8 0 1.45-.931 1.45-2.08s-.65-2.08-1.45-2.08-1.45.931-1.45 2.08.65 2.08 1.45 2.08M16.37 10.95c0 1.15-.65 2.08-1.45 2.08s-1.45-.93-1.45-2.08.65-2.08 1.45-2.08 1.45.93 1.45 2.08"/><path fill-rule="evenodd" d="M6.5 4.5h11c1.1 0 2 .9 2 2v11c0 1.1-.9 2-2 2h-11c-1.1 0-2-.9-2-2v-11c0-1.1.9-2 2-2m-.33 13.33h11.67V7.2C15.97 9.02 9.19 8.66 9.1 6.16h-.51c-.03 1.41-1.21 2.13-2.42 2.16z" clip-rule="evenodd"/></svg>