<svg xmlns="http://www.w3.org/2000/svg" viewBox="0 0 24 24" width="24" height="24"><path d="M12 16.167q1.729 0 2.948-1.22Q16.167 13.73 16.167 12t-1.22-2.948T12 7.833t-2.948 1.22Q7.834 10.27 7.833 12q0 1.729 1.22 2.948Q10.27 16.167 12 16.167m0 4.166a8.1 8.1 0 0 1-3.25-.656 8.4 8.4 0 0 1-2.646-1.781 8.4 8.4 0 0 1-1.781-2.646A8.1 8.1 0 0 1 3.667 12q0-1.73.656-3.25a8.4 8.4 0 0 1 1.781-2.646A8.4 8.4 0 0 1 8.75 4.323 8.1 8.1 0 0 1 12 3.667q1.73 0 3.25.656a8.4 8.4 0 0 1 2.646 1.781 8.4 8.4 0 0 1 1.781 2.646 8.1 8.1 0 0 1 .656 3.25 8.1 8.1 0 0 1-.656 3.25 8.4 8.4 0 0 1-1.781 2.646 8.4 8.4 0 0 1-2.646 1.781 8.1 8.1 0 0 1-3.25.656m0-1.666q2.792 0 4.73-1.938 1.936-1.937 1.937-4.729 0-2.791-1.938-4.73Q14.792 5.335 12 5.334q-2.791 0-4.73 1.938Q5.335 9.209 5.334 12q0 2.792 1.938 4.73Q9.209 18.665 12 18.666"/></svg>