<svg xmlns="http://www.w3.org/2000/svg" viewBox="0 0 24 24" width="24" height="24"><path d="M10.75 20.333a7.4 7.4 0 0 1-2.927-.583 7.5 7.5 0 0 1-2.386-1.604 7.5 7.5 0 0 1-1.604-2.386 7.4 7.4 0 0 1-.583-2.927q0-1.562.583-2.927a7.5 7.5 0 0 1 1.604-2.385 7.5 7.5 0 0 1 2.386-1.604 7.4 7.4 0 0 1 2.927-.584 6.6 6.6 0 0 1 1.667.209V7.25A5.544 5.544 0 0 0 10.75 7Q8.292 7 6.604 8.687t-1.687 4.146q0 2.46 1.687 4.146 1.688 1.688 4.146 1.688t4.146-1.688 1.687-4.146q0-.228-.02-.416A6 6 0 0 0 16.5 12h1.708q.042.23.042.417v.416a7.4 7.4 0 0 1-.583 2.927 7.5 7.5 0 0 1-1.605 2.386 7.5 7.5 0 0 1-2.385 1.604 7.4 7.4 0 0 1-2.927.583m2.333-4-3.166-3.166v-4.5h1.666V12.5l2.667 2.667zm3.5-6v-2.5h-2.5V6.167h2.5v-2.5h1.667v2.5h2.5v1.666h-2.5v2.5z"/></svg>