<svg xmlns="http://www.w3.org/2000/svg" viewBox="0 0 24 24" width="24" height="24"><path d="M9.5 4.917V3.25h5v1.667zm1.667 9.166h1.666v-5h-1.666zM12 20.75a7.2 7.2 0 0 1-2.906-.594 7.7 7.7 0 0 1-2.386-1.614 7.7 7.7 0 0 1-1.614-2.386A7.2 7.2 0 0 1 4.5 13.25q0-1.542.594-2.906a7.7 7.7 0 0 1 1.614-2.386 7.7 7.7 0 0 1 2.386-1.614A7.2 7.2 0 0 1 12 5.75q1.292 0 2.48.417 1.186.416 2.228 1.208l1.167-1.167 1.167 1.167-1.167 1.167a8.1 8.1 0 0 1 1.208 2.229q.417 1.187.417 2.479a7.2 7.2 0 0 1-.594 2.906 7.7 7.7 0 0 1-1.614 2.386 7.7 7.7 0 0 1-2.386 1.614A7.2 7.2 0 0 1 12 20.75"/></svg>