<svg xmlns="http://www.w3.org/2000/svg" viewBox="0 0 24 24" width="24" height="24"><path d="M7.343 18.53a2.4 2.4 0 0 1-1.771-.729 2.4 2.4 0 0 1-.73-1.77H3.177V6.863q0-.688.49-1.178.489-.49 1.177-.49h11.666V8.53h2.5l2.5 3.334v4.166h-1.666q0 1.042-.73 1.771a2.4 2.4 0 0 1-1.77.73 2.4 2.4 0 0 1-1.771-.73 2.4 2.4 0 0 1-.73-1.77h-5a2.4 2.4 0 0 1-.728 1.77 2.4 2.4 0 0 1-1.771.73m0-1.667q.354 0 .593-.24.24-.239.24-.593a.8.8 0 0 0-.24-.594.8.8 0 0 0-.593-.24.8.8 0 0 0-.594.24.8.8 0 0 0-.24.594q0 .354.24.594t.594.24m10 0q.354 0 .593-.24.24-.239.24-.593a.8.8 0 0 0-.24-.594.8.8 0 0 0-.593-.24.8.8 0 0 0-.594.24.8.8 0 0 0-.24.594q0 .354.24.594t.594.24m-.834-4.166h3.542l-1.875-2.5h-1.667z"/></svg>