<svg xmlns="http://www.w3.org/2000/svg" viewBox="0 0 24 24" width="24" height="24"><path d="M17 13.667v-2.5h-2.5V9.5H17V7h1.667v2.5h2.5v1.667h-2.5v2.5zM9.5 12a3.2 3.2 0 0 1-2.354-.98 3.2 3.2 0 0 1-.98-2.353q0-1.376.98-2.354a3.2 3.2 0 0 1 2.354-.98 3.2 3.2 0 0 1 2.354.98 3.2 3.2 0 0 1 .98 2.354 3.2 3.2 0 0 1-.98 2.354A3.2 3.2 0 0 1 9.5 12m-6.667 6.667v-2.334q0-.708.365-1.302a2.43 2.43 0 0 1 .969-.906q1.29-.645 2.625-.969a11.5 11.5 0 0 1 2.708-.323q1.376 0 2.708.323 1.334.323 2.625.969.604.312.97.906.364.594.364 1.302v2.334z"/></svg>