<svg xmlns="http://www.w3.org/2000/svg" viewBox="0 0 24 24" width="24" height="24"><path d="M8.25 5.75a1.25 1.25 0 1 1-2.5 0 1.25 1.25 0 0 1 2.5 0M12 4.5A1.25 1.25 0 1 0 12 7a1.25 1.25 0 0 0 0-2.5M17 7a1.25 1.25 0 1 0 0-2.5A1.25 1.25 0 0 0 17 7M7 8.875a1.25 1.25 0 1 0 0 2.5 1.25 1.25 0 0 0 0-2.5m5 0a1.25 1.25 0 1 0 0 2.5 1.25 1.25 0 0 0 0-2.5m5 0a1.25 1.25 0 1 0 0 2.5 1.25 1.25 0 0 0 0-2.5M7 13.25a1.25 1.25 0 1 0 0 2.5 1.25 1.25 0 0 0 0-2.5m5 0a1.25 1.25 0 1 0 0 2.5 1.25 1.25 0 0 0 0-2.5m0 4.375a1.25 1.25 0 1 0 0 2.5 1.25 1.25 0 0 0 0-2.5m5-4.375a1.25 1.25 0 1 0 0 2.5 1.25 1.25 0 0 0 0-2.5"/></svg>