<svg xmlns="http://www.w3.org/2000/svg" viewBox="0 0 24 24" width="24" height="24"><path d="M19.5 11.375a3.125 3.125 0 0 1-3.125-3.125.625.625 0 0 0-.625-.625A3.125 3.125 0 0 1 12.625 4.5.625.625 0 0 0 12 3.875 8.125 8.125 0 1 0 20.125 12a.624.624 0 0 0-.625-.625m-11.6-1.6a.937.937 0 1 1 1.323 1.327.937.937 0 0 1-1.324-1.328m1.952 5.702a.937.937 0 1 1-1.32-1.325.937.937 0 0 1 1.319 1.324zm1.797-3.125a.937.937 0 1 1 .305.203.9.9 0 0 1-.305-.204zm3.203 3.75a.937.937 0 1 1-1.32-1.324.937.937 0 0 1 1.319 1.323z"/></svg>