<svg xmlns="http://www.w3.org/2000/svg" viewBox="0 0 24 24" width="24" height="24"><path d="M9.5 18.25a.625.625 0 0 1-.625.625H5.077a1.203 1.203 0 0 1-1.202-1.202V17a.625.625 0 1 1 1.25 0v.625h3.75a.625.625 0 0 1 .625.625m5-.625H12a.625.625 0 0 0 0 1.25h2.5a.624.624 0 1 0 0-1.25m5-4.375a.625.625 0 0 0-.625.625v3.75h-1.25a.625.625 0 0 0 0 1.25h1.32a1.18 1.18 0 0 0 1.18-1.18v-3.82a.624.624 0 0 0-.625-.625m-.625-5.625h-3.75a.625.625 0 1 0 0 1.25h3.75v1.875a.624.624 0 1 0 1.25 0V8.875a1.25 1.25 0 0 0-1.25-1.25M4.5 8.875H12a.625.625 0 0 0 .442-1.067L10.125 5.49a1.24 1.24 0 0 0-.884-.366H5.125a1.25 1.25 0 0 0-1.25 1.25V8.25a.625.625 0 0 0 .625.625m0 5.625a.625.625 0 0 0 .625-.625v-2.5a.625.625 0 1 0-1.25 0v2.5a.625.625 0 0 0 .625.625"/></svg>