<svg xmlns="http://www.w3.org/2000/svg" viewBox="0 0 24 24" width="24" height="24"><path d="M5.75 20.333q-.687 0-1.177-.49a1.6 1.6 0 0 1-.49-1.176V7q0-.687.49-1.177t1.177-.49h.833V3.667H8.25v1.666h6.667V3.667h1.666v1.666h.834q.687 0 1.177.49T19.084 7v5h-1.667v-1.667H5.75v8.334h7.5v1.666zm9.875 0a.68.68 0 0 1-.5-.208.68.68 0 0 1-.208-.5v-2.75q0-.291.208-.5a.68.68 0 0 1 .5-.208h.125v-.834q0-.687.49-1.177.489-.49 1.177-.49.687 0 1.177.49t.49 1.177v.834h.124q.292 0 .5.208a.68.68 0 0 1 .209.5v2.75q0 .292-.209.5a.68.68 0 0 1-.5.208zm.958-4.166h1.667v-.834a.8.8 0 0 0-.24-.593.8.8 0 0 0-.593-.24.8.8 0 0 0-.594.24.8.8 0 0 0-.24.593z"/></svg>