<svg width="24" height="24" viewBox="0 0 24 24" fill="none" xmlns="http://www.w3.org/2000/svg">
<path d="M12 20.1875C10.9583 20.1875 9.98264 19.9896 9.07292 19.5938C8.16319 19.1979 7.37153 18.6632 6.69792 17.9896C6.02431 17.316 5.48958 16.5243 5.09375 15.6146C4.69792 14.7049 4.5 13.7292 4.5 12.6875C4.5 11.6458 4.69792 10.6701 5.09375 9.76042C5.48958 8.85069 6.02431 8.05903 6.69792 7.38542C7.37153 6.71181 8.16319 6.17708 9.07292 5.78125C9.98264 5.38542 10.9583 5.1875 12 5.1875C13.0417 5.1875 14.0174 5.38542 14.9271 5.78125C15.8368 6.17708 16.6285 6.71181 17.3021 7.38542C17.9757 8.05903 18.5104 8.85069 18.9063 9.76042C19.3021 10.6701 19.5 11.6458 19.5 12.6875C19.5 13.7292 19.3021 14.7049 18.9063 15.6146C18.5104 16.5243 17.9757 17.316 17.3021 17.9896C16.6285 18.6632 15.8368 19.1979 14.9271 19.5938C14.0174 19.9896 13.0417 20.1875 12 20.1875ZM14.3333 16.1875L15.5 15.0208L12.8333 12.3542V8.52083H11.1667V13.0208L14.3333 16.1875ZM6.66667 3.8125L7.83333 4.97917L4.29167 8.52083L3.125 7.35417L6.66667 3.8125ZM17.3333 3.8125L20.875 7.35417L19.7083 8.52083L16.1667 4.97917L17.3333 3.8125Z" fill="#1E1E1E"/>
</svg>
