<svg width="24" height="24" viewBox="0 0 24 24" fill="none" xmlns="http://www.w3.org/2000/svg">
<path d="M7.83331 17.25V15.5833H13.75C14.625 15.5833 15.3854 15.3056 16.0312 14.75C16.6771 14.1944 17 13.5 17 12.6667C17 11.8333 16.6771 11.1389 16.0312 10.5833C15.3854 10.0278 14.625 9.75 13.75 9.75H8.49998L10.6666 11.9167L9.49998 13.0833L5.33331 8.91667L9.49998 4.75L10.6666 5.91667L8.49998 8.08333H13.75C15.0972 8.08333 16.2535 8.52083 17.2187 9.39583C18.184 10.2708 18.6666 11.3611 18.6666 12.6667C18.6666 13.9722 18.184 15.0625 17.2187 15.9375C16.2535 16.8125 15.0972 17.25 13.75 17.25H7.83331Z" fill="#1E1E1E"/>
</svg>
