<svg width="24" height="24" viewBox="0 0 24 24" fill="none" xmlns="http://www.w3.org/2000/svg">
<path d="M10.25 17.25C8.90276 17.25 7.74651 16.8125 6.78123 15.9375C5.81595 15.0625 5.33331 13.9722 5.33331 12.6667C5.33331 11.3611 5.81595 10.2708 6.78123 9.39583C7.74651 8.52083 8.90276 8.08333 10.25 8.08333H15.5L13.3333 5.91667L14.5 4.75L18.6666 8.91667L14.5 13.0833L13.3333 11.9167L15.5 9.75H10.25C9.37498 9.75 8.61456 10.0278 7.96873 10.5833C7.3229 11.1389 6.99998 11.8333 6.99998 12.6667C6.99998 13.5 7.3229 14.1944 7.96873 14.75C8.61456 15.3056 9.37498 15.5833 10.25 15.5833H16.1666V17.25H10.25Z" fill="#1E1E1E"/>
</svg>
