<svg width="24" height="24" viewBox="0 0 24 24" fill="none" xmlns="http://www.w3.org/2000/svg">
<path d="M19.6699 19.6699L18.5 20.8301L11.25 13.5801V15.5H10.25V12.5801L8.75 11.0801V15.5H7.75V10.0801L6 8.33008V9H5V7.33008L3.16992 5.5L4.33008 4.33008L19.6699 19.6699Z" fill="#8C8F97"/>
<path d="M6 17H8V18H5V15H6V17Z" fill="#8C8F97"/>
<path d="M19 16.6699L18 15.6699V15H19V16.6699Z" fill="#8C8F97"/>
<path d="M16.25 13.9199L15.25 12.9199V8.5H16.25V13.9199Z" fill="#8C8F97"/>
<path d="M13.75 11.4199L12.75 10.4199V8.5H13.75V11.4199Z" fill="#8C8F97"/>
<path d="M19 9H18V7H16V6H19V9Z" fill="#8C8F97"/>
</svg>
