<svg width="24" height="24" viewBox="0 0 24 24" fill="none" xmlns="http://www.w3.org/2000/svg">
<path d="M6.17135 19.9167C5.33802 19.9167 4.67483 19.5938 4.18177 18.948C3.68871 18.3021 3.54635 17.5834 3.75469 16.7917L5.25469 11.125C4.79635 10.8334 4.41788 10.4375 4.11927 9.93754C3.82066 9.43754 3.67135 8.87504 3.67135 8.25004C3.67135 7.33337 3.99774 6.54865 4.65052 5.89587C5.3033 5.2431 6.08802 4.91671 7.00469 4.91671H13.6714C14.2964 4.91671 14.7686 5.1806 15.088 5.70837C15.4075 6.23615 15.4283 6.77782 15.1505 7.33337L13.4839 10.6667C13.3311 10.9445 13.1262 11.1667 12.8693 11.3334C12.6123 11.5 12.3241 11.5834 12.0047 11.5834H10.3172L10.088 12.4167H10.338C10.5741 12.4167 10.772 12.4966 10.9318 12.6563C11.0915 12.816 11.1714 13.0139 11.1714 13.25V14.9167C11.1714 15.1528 11.0915 15.3507 10.9318 15.5105C10.772 15.6702 10.5741 15.75 10.338 15.75H9.21302L8.58802 18.0834C8.43524 18.625 8.13663 19.066 7.69219 19.4063C7.24774 19.7466 6.7408 19.9167 6.17135 19.9167ZM17.0047 6.58337L16.4839 5.45837L19.5047 4.08337L20.0047 5.22921L17.0047 6.58337ZM19.5047 12.4167L16.4839 11.0625L17.0047 9.91671L20.0047 11.2917L19.5047 12.4167ZM17.0047 8.87504V7.62504H20.338V8.87504H17.0047Z" fill="#1E1E1E"/>
</svg>
