<svg width="24" height="24" viewBox="0 0 24 24" fill="none" xmlns="http://www.w3.org/2000/svg">
<path d="M5.33854 17.823V16.1564H7.00521V10.323C7.00521 9.86471 7.06424 9.41332 7.18229 8.96887C7.30035 8.52443 7.47743 8.10082 7.71354 7.69804L10.3385 10.323H8.00521L3.17188 5.48971L4.33854 4.32304L19.6719 19.6564L18.5052 20.823L15.4635 17.823H5.33854ZM17.0052 14.6147L8.83854 6.44804C9.11632 6.22582 9.41493 6.03137 9.73438 5.86471C10.0538 5.69804 10.3941 5.57304 10.7552 5.48971V4.90637C10.7552 4.55915 10.8767 4.26401 11.1198 4.02096C11.3628 3.7779 11.658 3.65637 12.0052 3.65637C12.3524 3.65637 12.6476 3.7779 12.8906 4.02096C13.1337 4.26401 13.2552 4.55915 13.2552 4.90637V5.48971C14.3663 5.76748 15.2691 6.35429 15.9635 7.25012C16.658 8.14596 17.0052 9.17026 17.0052 10.323V14.6147ZM12.0052 20.323C11.5469 20.323 11.1545 20.1598 10.8281 19.8335C10.5017 19.5071 10.3385 19.1147 10.3385 18.6564H13.6719C13.6719 19.1147 13.5087 19.5071 13.1823 19.8335C12.8559 20.1598 12.4635 20.323 12.0052 20.323Z" fill="#1E1E1E"/>
</svg>
