<svg width="24" height="24" viewBox="0 0 24 24" fill="none" xmlns="http://www.w3.org/2000/svg">
<path d="M15.75 20.3334V17.8334H13.25V16.1667H15.75V13.6667H17.4166V16.1667H19.9166V17.8334H17.4166V20.3334H15.75ZM5.74998 18.6667C5.29165 18.6667 4.89929 18.5035 4.5729 18.1771C4.24651 17.8507 4.08331 17.4584 4.08331 17V7.00002C4.08331 6.54169 4.24651 6.14933 4.5729 5.82294C4.89929 5.49655 5.29165 5.33335 5.74998 5.33335H6.58331V3.66669H8.24998V5.33335H13.25V3.66669H14.9166V5.33335H15.75C16.2083 5.33335 16.6007 5.49655 16.9271 5.82294C17.2535 6.14933 17.4166 6.54169 17.4166 7.00002V12.0834C17.1389 12.0417 16.8611 12.0209 16.5833 12.0209C16.3055 12.0209 16.0278 12.0417 15.75 12.0834V10.3334H5.74998V17H11.5833C11.5833 17.2778 11.6041 17.5556 11.6458 17.8334C11.6875 18.1111 11.7639 18.3889 11.875 18.6667H5.74998Z" fill="#1E1E1E"/>
</svg>
