<svg width="24" height="24" viewBox="0 0 24 24" fill="none" xmlns="http://www.w3.org/2000/svg">
<path d="M8.67432 20.3333C8.21598 20.3333 7.82362 20.1701 7.49723 19.8437C7.17084 19.5173 7.00765 19.125 7.00765 18.6666C7.00765 18.2083 7.17084 17.8159 7.49723 17.4895C7.82362 17.1632 8.21598 17 8.67432 17C9.13265 17 9.52501 17.1632 9.8514 17.4895C10.1778 17.8159 10.341 18.2083 10.341 18.6666C10.341 19.125 10.1778 19.5173 9.8514 19.8437C9.52501 20.1701 9.13265 20.3333 8.67432 20.3333ZM17.0076 20.3333C16.5493 20.3333 16.157 20.1701 15.8306 19.8437C15.5042 19.5173 15.341 19.125 15.341 18.6666C15.341 18.2083 15.5042 17.8159 15.8306 17.4895C16.157 17.1632 16.5493 17 17.0076 17C17.466 17 17.8583 17.1632 18.1847 17.4895C18.5111 17.8159 18.6743 18.2083 18.6743 18.6666C18.6743 19.125 18.5111 19.5173 18.1847 19.8437C17.8583 20.1701 17.466 20.3333 17.0076 20.3333ZM7.17432 5.33329H19.466C19.7854 5.33329 20.0285 5.47565 20.1952 5.76038C20.3618 6.0451 20.3688 6.33329 20.216 6.62496L17.2577 11.9583C17.1049 12.2361 16.9 12.4513 16.6431 12.6041C16.3861 12.7569 16.1049 12.8333 15.7993 12.8333H9.59098L8.67432 14.5H18.6743V16.1666H8.67432C8.04932 16.1666 7.57709 15.8923 7.25765 15.3437C6.93821 14.7951 6.92432 14.25 7.21598 13.7083L8.34098 11.6666L5.34098 5.33329H3.67432V3.66663H6.38265L7.17432 5.33329Z" fill="#1E1E1E"/>
</svg>
