<svg width="24" height="24" viewBox="0 0 24 24" fill="none" xmlns="http://www.w3.org/2000/svg">
<path d="M3.66663 18.6666V16.1666H5.33329V6.99992C5.33329 6.54159 5.49649 6.14922 5.82288 5.82284C6.14926 5.49645 6.54163 5.33325 6.99996 5.33325H19.5V6.99992H6.99996V16.1666H12V18.6666H3.66663ZM14.5 18.6666C14.2638 18.6666 14.0659 18.5867 13.9062 18.427C13.7465 18.2673 13.6666 18.0694 13.6666 17.8333V9.49992C13.6666 9.26381 13.7465 9.06589 13.9062 8.90617C14.0659 8.74645 14.2638 8.66659 14.5 8.66659H19.5C19.7361 8.66659 19.934 8.74645 20.0937 8.90617C20.2534 9.06589 20.3333 9.26381 20.3333 9.49992V17.8333C20.3333 18.0694 20.2534 18.2673 20.0937 18.427C19.934 18.5867 19.7361 18.6666 19.5 18.6666H14.5Z" fill="#1E1E1E"/>
</svg>
