<svg width="24" height="24" viewBox="0 0 24 24" fill="none" xmlns="http://www.w3.org/2000/svg">
<path d="M10.75 14.5H13.25L12.7709 11.8125C13.0487 11.6736 13.2674 11.4722 13.4271 11.2083C13.5868 10.9444 13.6667 10.6527 13.6667 10.3333C13.6667 9.87496 13.5035 9.4826 13.1771 9.15621C12.8507 8.82982 12.4584 8.66663 12 8.66663C11.5417 8.66663 11.1493 8.82982 10.823 9.15621C10.4966 9.4826 10.3334 9.87496 10.3334 10.3333C10.3334 10.6527 10.4132 10.9444 10.573 11.2083C10.7327 11.4722 10.9514 11.6736 11.2292 11.8125L10.75 14.5ZM12 20.3333C10.0695 19.8472 8.47574 18.7395 7.21879 17.0104C5.96185 15.2812 5.33337 13.3611 5.33337 11.25V6.16663L12 3.66663L18.6667 6.16663V11.25C18.6667 13.3611 18.0382 15.2812 16.7813 17.0104C15.5243 18.7395 13.9306 19.8472 12 20.3333Z" fill="#1E1E1E"/>
</svg>
