<svg width="24" height="24" viewBox="0 0 24 24" fill="none" xmlns="http://www.w3.org/2000/svg">
<path d="M8.70833 20.125H5.54167C5.08333 20.125 4.69097 19.9618 4.36458 19.6354C4.03819 19.309 3.875 18.9167 3.875 18.4583V15.2917C4.54167 15.2917 5.125 15.0799 5.625 14.6562C6.125 14.2326 6.375 13.6944 6.375 13.0417C6.375 12.3889 6.125 11.8507 5.625 11.4271C5.125 11.0035 4.54167 10.7917 3.875 10.7917V7.625C3.875 7.16667 4.03819 6.77431 4.36458 6.44792C4.69097 6.12153 5.08333 5.95833 5.54167 5.95833H8.875C8.875 5.375 9.07639 4.88194 9.47917 4.47917C9.88194 4.07639 10.375 3.875 10.9583 3.875C11.5417 3.875 12.0347 4.07639 12.4375 4.47917C12.8403 4.88194 13.0417 5.375 13.0417 5.95833H16.375C16.8333 5.95833 17.2257 6.12153 17.5521 6.44792C17.8785 6.77431 18.0417 7.16667 18.0417 7.625V10.9583C18.625 10.9583 19.1181 11.1597 19.5208 11.5625C19.9236 11.9653 20.125 12.4583 20.125 13.0417C20.125 13.625 19.9236 14.1181 19.5208 14.5208C19.1181 14.9236 18.625 15.125 18.0417 15.125V18.4583C18.0417 18.9167 17.8785 19.309 17.5521 19.6354C17.2257 19.9618 16.8333 20.125 16.375 20.125H13.2083C13.2083 19.4306 12.9896 18.8403 12.5521 18.3542C12.1146 17.8681 11.5833 17.625 10.9583 17.625C10.3333 17.625 9.80208 17.8681 9.36458 18.3542C8.92708 18.8403 8.70833 19.4306 8.70833 20.125Z" fill="#1E1E1E"/>
</svg>
