<svg width="24" height="24" viewBox="0 0 24 24" fill="none" xmlns="http://www.w3.org/2000/svg">
<path d="M5.33337 19.0834C4.63893 19.0834 4.04865 18.8403 3.56254 18.3542C3.07643 17.8681 2.83337 17.2778 2.83337 16.5834C2.83337 16.2222 2.90282 15.8785 3.04171 15.5521C3.1806 15.2257 3.38893 14.9445 3.66671 14.7084V10.75H5.33337V5.75002H12L15.9167 14.9792C16 15.1736 16.0625 15.3681 16.1042 15.5625C16.1459 15.757 16.1667 15.9584 16.1667 16.1667C16.1667 16.9722 15.882 17.6597 15.3125 18.2292C14.7431 18.7986 14.0556 19.0834 13.25 19.0834C12.6806 19.0834 12.1563 18.934 11.6771 18.6354C11.198 18.3368 10.8403 17.9306 10.6042 17.4167H7.68754C7.50699 17.9167 7.20143 18.3195 6.77087 18.625C6.34032 18.9306 5.86115 19.0834 5.33337 19.0834ZM17 18.25V4.91669H18.6667V16.5834H21.1667V18.25H17ZM5.33337 17.4167C5.56949 17.4167 5.7674 17.3368 5.92712 17.1771C6.08685 17.0174 6.16671 16.8195 6.16671 16.5834C6.16671 16.3472 6.08685 16.1493 5.92712 15.9896C5.7674 15.8299 5.56949 15.75 5.33337 15.75C5.09726 15.75 4.89935 15.8299 4.73962 15.9896C4.5799 16.1493 4.50004 16.3472 4.50004 16.5834C4.50004 16.8195 4.5799 17.0174 4.73962 17.1771C4.89935 17.3368 5.09726 17.4167 5.33337 17.4167ZM13.25 17.4167C13.5973 17.4167 13.8924 17.2952 14.1355 17.0521C14.3785 16.809 14.5 16.5139 14.5 16.1667C14.5 15.8195 14.3785 15.5243 14.1355 15.2813C13.8924 15.0382 13.5973 14.9167 13.25 14.9167C12.9028 14.9167 12.6077 15.0382 12.3646 15.2813C12.1216 15.5243 12 15.8195 12 16.1667C12 16.5139 12.1216 16.809 12.3646 17.0521C12.6077 17.2952 12.9028 17.4167 13.25 17.4167ZM9.43754 13.25H13.375L10.8959 7.41669H7.00004V10.75L9.43754 13.25Z" fill="#1E1E1E"/>
</svg>
