<svg width="24" height="24" viewBox="0 0 24 24" fill="none" xmlns="http://www.w3.org/2000/svg">
<path fill-rule="evenodd" clip-rule="evenodd" d="M15.93 4.5C15.71 4.5 15.49 4.52 15.27 4.55C13.68 4.78 12.71 5.71 12 7.05C11.29 5.7 10.32 4.78 8.72999 4.55C8.50999 4.52 8.28999 4.5 8.06999 4.5C7.02999 4.5 6.00999 4.86 5.15999 5.53C4.13999 6.34 3.46999 7.54 3.29999 8.87C2.54999 14.54 11.37 19.23 11.71 19.42C11.8 19.47 11.9 19.5 12 19.5C12.1 19.5 12.2 19.47 12.29 19.42C12.63 19.23 21.45 14.54 20.7 8.87C20.52 7.54 19.85 6.34 18.83 5.52C17.99 4.86 16.97 4.5 15.93 4.5ZM15.93 6.17C16.61 6.17 17.25 6.4 17.8 6.83C18.48 7.37 18.93 8.19 19.05 9.09C19.49 12.4 15.03 15.92 12 17.68C8.97 15.92 4.50999 12.4 4.94999 9.09C5.06999 8.19 5.52999 7.37 6.2 6.83C6.74999 6.4 7.39 6.17 8.06999 6.17C8.20999 6.17 8.34999 6.18 8.48999 6.2C9.39999 6.33 9.99 6.8 10.52 7.83C10.81 8.38 11.38 8.72 11.99 8.72C12.6 8.72 13.18 8.38 13.46 7.83C14 6.81 14.59 6.34 15.49 6.2C15.63 6.18 15.77 6.17 15.91 6.17" fill="#1E1E1E"/>
</svg>
