<svg width="24" height="24" viewBox="0 0 24 24" fill="none" xmlns="http://www.w3.org/2000/svg">
<path d="M20.7 8.86993C20.52 7.53993 19.85 6.33993 18.83 5.51993C17.82 4.71993 16.53 4.35993 15.27 4.54993C13.68 4.77993 12.71 5.70993 12 7.04993C11.29 5.69993 10.32 4.77993 8.72999 4.54993C7.45999 4.36993 6.17999 4.71993 5.15999 5.52993C4.13999 6.33993 3.46999 7.53993 3.29999 8.86993C2.54999 14.5399 11.37 19.2299 11.71 19.4199C11.8 19.4699 11.9 19.4999 12 19.4999C12.1 19.4999 12.2 19.4699 12.29 19.4199C12.63 19.2299 21.45 14.5399 20.7 8.86993Z" fill="#1E1E1E"/>
</svg>
