<svg width="24" height="24" viewBox="0 0 24 24" fill="none" xmlns="http://www.w3.org/2000/svg">
<path d="M12 20.75C10.9583 20.75 9.98264 20.5521 9.07292 20.1562C8.16319 19.7604 7.37153 19.2257 6.69792 18.5521C6.02431 17.8785 5.48958 17.0868 5.09375 16.1771C4.69792 15.2674 4.5 14.2917 4.5 13.25C4.5 12.2083 4.69792 11.2326 5.09375 10.3229C5.48958 9.41319 6.02431 8.62153 6.69792 7.94792C7.37153 7.27431 8.16319 6.73958 9.07292 6.34375C9.98264 5.94792 10.9583 5.75 12 5.75H12.125L10.8333 4.45833L12 3.25L15.3333 6.58333L12 9.91667L10.8333 8.70833L12.125 7.41667H12C10.375 7.41667 8.99653 7.98264 7.86458 9.11458C6.73264 10.2465 6.16667 11.625 6.16667 13.25C6.16667 14.875 6.73264 16.2535 7.86458 17.3854C8.99653 18.5174 10.375 19.0833 12 19.0833C13.625 19.0833 15.0035 18.5174 16.1354 17.3854C17.2674 16.2535 17.8333 14.875 17.8333 13.25H19.5C19.5 14.2917 19.3021 15.2674 18.9062 16.1771C18.5104 17.0868 17.9757 17.8785 17.3021 18.5521C16.6285 19.2257 15.8368 19.7604 14.9271 20.1562C14.0174 20.5521 13.0417 20.75 12 20.75Z" fill="#1E1E1E"/>
</svg>
