<svg width="24" height="24" viewBox="0 0 24 24" fill="none" xmlns="http://www.w3.org/2000/svg">
<path d="M11.5 15.3333L13.6667 13.1666L15.8334 15.3333L17 14.1666L14.8334 12L17 9.83331L15.8334 8.66665L13.6667 10.8333L11.5 8.66665L10.3334 9.83331L12.5 12L10.3334 14.1666L11.5 15.3333ZM9.50002 18.6666C9.23613 18.6666 8.98613 18.6076 8.75002 18.4896C8.51391 18.3715 8.31946 18.2083 8.16669 18L3.66669 12L8.16669 5.99998C8.31946 5.79165 8.51391 5.62845 8.75002 5.5104C8.98613 5.39234 9.23613 5.33331 9.50002 5.33331H18.6667C19.125 5.33331 19.5174 5.49651 19.8438 5.8229C20.1702 6.14929 20.3334 6.54165 20.3334 6.99998V17C20.3334 17.4583 20.1702 17.8507 19.8438 18.1771C19.5174 18.5035 19.125 18.6666 18.6667 18.6666H9.50002Z" fill="#1E1E1E"/>
</svg>
