<svg width="24" height="24" viewBox="0 0 24 24" fill="none" xmlns="http://www.w3.org/2000/svg">
<path d="M12 20.3334L8.66669 17H15.3334L12 20.3334ZM5.33335 15.3334C4.87502 15.3334 4.48266 15.1702 4.15627 14.8438C3.82988 14.5174 3.66669 14.125 3.66669 13.6667V5.33335C3.66669 4.87502 3.82988 4.48266 4.15627 4.15627C4.48266 3.82988 4.87502 3.66669 5.33335 3.66669H18.6667C19.125 3.66669 19.5174 3.82988 19.8438 4.15627C20.1702 4.48266 20.3334 4.87502 20.3334 5.33335V13.6667C20.3334 14.125 20.1702 14.5174 19.8438 14.8438C19.5174 15.1702 19.125 15.3334 18.6667 15.3334H5.33335ZM8.66669 12.8334H15.3334V11.1667H8.66669V12.8334ZM6.16669 10.3334H7.83335V8.66669H6.16669V10.3334ZM8.66669 10.3334H10.3334V8.66669H8.66669V10.3334ZM11.1667 10.3334H12.8334V8.66669H11.1667V10.3334ZM13.6667 10.3334H15.3334V8.66669H13.6667V10.3334ZM16.1667 10.3334H17.8334V8.66669H16.1667V10.3334ZM6.16669 7.83335H7.83335V6.16669H6.16669V7.83335ZM8.66669 7.83335H10.3334V6.16669H8.66669V7.83335ZM11.1667 7.83335H12.8334V6.16669H11.1667V7.83335ZM13.6667 7.83335H15.3334V6.16669H13.6667V7.83335ZM16.1667 7.83335H17.8334V6.16669H16.1667V7.83335Z" fill="#1E1E1E"/>
</svg>
