<svg width="24" height="24" viewBox="0 0 24 24" fill="none" xmlns="http://www.w3.org/2000/svg">
<path d="M17.8334 9.49998C17.0417 9.49998 16.3542 9.26387 15.7709 8.79165C15.1875 8.31942 14.7987 7.7222 14.6042 6.99998H9.37504C9.22226 7.58331 8.93407 8.08679 8.51046 8.5104C8.08685 8.93401 7.58337 9.2222 7.00004 9.37498V14.6041C7.72226 14.7986 8.31949 15.1875 8.79171 15.7708C9.26393 16.3541 9.50004 17.0416 9.50004 17.8333C9.50004 18.75 9.17365 19.5347 8.52087 20.1875C7.8681 20.8403 7.08337 21.1666 6.16671 21.1666C5.25004 21.1666 4.46532 20.8403 3.81254 20.1875C3.15976 19.5347 2.83337 18.75 2.83337 17.8333C2.83337 17.0416 3.06949 16.3541 3.54171 15.7708C4.01393 15.1875 4.61115 14.7986 5.33337 14.6041V9.37498C4.61115 9.18054 4.01393 8.79165 3.54171 8.20831C3.06949 7.62498 2.83337 6.94442 2.83337 6.16665C2.83337 5.24998 3.15976 4.46526 3.81254 3.81248C4.46532 3.1597 5.25004 2.83331 6.16671 2.83331C6.94449 2.83331 7.62504 3.06942 8.20837 3.54165C8.79171 4.01387 9.1806 4.61109 9.37504 5.33331H14.6042C14.7987 4.61109 15.1875 4.01387 15.7709 3.54165C16.3542 3.06942 17.0417 2.83331 17.8334 2.83331C18.75 2.83331 19.5348 3.1597 20.1875 3.81248C20.8403 4.46526 21.1667 5.24998 21.1667 6.16665C21.1667 7.08331 20.8403 7.86804 20.1875 8.52081C19.5348 9.17359 18.75 9.49998 17.8334 9.49998ZM17.8334 21.1666C16.9167 21.1666 16.132 20.8403 15.4792 20.1875C14.8264 19.5347 14.5 18.75 14.5 17.8333C14.5 16.9166 14.8264 16.1319 15.4792 15.4791C16.132 14.8264 16.9167 14.5 17.8334 14.5C18.75 14.5 19.5348 14.8264 20.1875 15.4791C20.8403 16.1319 21.1667 16.9166 21.1667 17.8333C21.1667 18.75 20.8403 19.5347 20.1875 20.1875C19.5348 20.8403 18.75 21.1666 17.8334 21.1666Z" fill="#1E1E1E"/>
</svg>
