<svg width="24" height="24" viewBox="0 0 24 24" fill="none" xmlns="http://www.w3.org/2000/svg">
<path d="M18.2916 15.125L17.0416 13.8333C17.5972 13.6806 18.0486 13.3854 18.3958 12.9479C18.743 12.5104 18.9166 12 18.9166 11.4167C18.9166 10.7222 18.6736 10.1319 18.1875 9.64583C17.7013 9.15972 17.1111 8.91667 16.4166 8.91667H13.0833V7.25H16.4166C17.5694 7.25 18.552 7.65625 19.3645 8.46875C20.177 9.28125 20.5833 10.2639 20.5833 11.4167C20.5833 12.2083 20.3784 12.9375 19.9687 13.6042C19.559 14.2708 19 14.7778 18.2916 15.125ZM15.4583 12.25L13.7916 10.5833H15.5833V12.25H15.4583ZM18.75 20.25L3.41663 4.91667L4.58329 3.75L19.9166 19.0833L18.75 20.25ZM11.4166 15.5833H8.08329C6.93052 15.5833 5.94788 15.1771 5.13538 14.3646C4.32288 13.5521 3.91663 12.5694 3.91663 11.4167C3.91663 10.4583 4.20829 9.60417 4.79163 8.85417C5.37496 8.10417 6.12496 7.61111 7.04163 7.375L8.58329 8.91667H8.08329C7.38885 8.91667 6.79857 9.15972 6.31246 9.64583C5.82635 10.1319 5.58329 10.7222 5.58329 11.4167C5.58329 12.1111 5.82635 12.7014 6.31246 13.1875C6.79857 13.6736 7.38885 13.9167 8.08329 13.9167H11.4166V15.5833ZM8.91663 12.25V10.5833H10.2708L11.9166 12.25H8.91663Z" fill="#1E1E1E"/>
</svg>
