<svg width="24" height="24" viewBox="0 0 24 24" fill="none" xmlns="http://www.w3.org/2000/svg">
<path d="M18.041 15.6945L16.791 14.4028C17.3466 14.25 17.798 13.9549 18.1452 13.5174C18.4924 13.0799 18.666 12.5695 18.666 11.9861C18.666 11.2917 18.423 10.7014 17.9368 10.2153C17.4507 9.72918 16.8605 9.48612 16.166 9.48612H12.8327V7.81946H16.166C17.3188 7.81946 18.3014 8.22571 19.1139 9.03821C19.9264 9.85071 20.3327 10.8333 20.3327 11.9861C20.3327 12.7778 20.1278 13.507 19.7181 14.1736C19.3084 14.8403 18.7493 15.3472 18.041 15.6945ZM15.2077 12.8195L13.541 11.1528H15.3327V12.8195H15.2077ZM18.4993 20.8195L3.16602 5.48612L4.33268 4.31946L19.666 19.6528L18.4993 20.8195ZM11.166 16.1528H7.83268C6.6799 16.1528 5.69727 15.7465 4.88477 14.934C4.07227 14.1215 3.66602 13.1389 3.66602 11.9861C3.66602 11.0278 3.95768 10.1736 4.54102 9.42362C5.12435 8.67362 5.87435 8.18057 6.79102 7.94446L8.33268 9.48612H7.83268C7.13824 9.48612 6.54796 9.72918 6.06185 10.2153C5.57574 10.7014 5.33268 11.2917 5.33268 11.9861C5.33268 12.6806 5.57574 13.2708 6.06185 13.757C6.54796 14.2431 7.13824 14.4861 7.83268 14.4861H11.166V16.1528ZM8.66602 12.8195V11.1528H10.0202L11.666 12.8195H8.66602Z" fill="#1E1E1E"/>
</svg>
