<svg width="24" height="24" viewBox="0 0 24 24" fill="none" xmlns="http://www.w3.org/2000/svg">
<path d="M8.40005 7.19999C8.40005 7.04086 8.46326 6.88825 8.57579 6.77572C8.68831 6.6632 8.84092 6.59999 9.00005 6.59999H18.6C18.7592 6.59999 18.9118 6.6632 19.0243 6.77572C19.1368 6.88825 19.2 7.04086 19.2 7.19999C19.2 7.35912 19.1368 7.51173 19.0243 7.62425C18.9118 7.73677 18.7592 7.79999 18.6 7.79999H9.00005C8.84092 7.79999 8.68831 7.73677 8.57579 7.62425C8.46326 7.51173 8.40005 7.35912 8.40005 7.19999ZM18.6 11.4H9.00005C8.84092 11.4 8.68831 11.4632 8.57579 11.5757C8.46326 11.6882 8.40005 11.8409 8.40005 12C8.40005 12.1591 8.46326 12.3117 8.57579 12.4243C8.68831 12.5368 8.84092 12.6 9.00005 12.6H18.6C18.7592 12.6 18.9118 12.5368 19.0243 12.4243C19.1368 12.3117 19.2 12.1591 19.2 12C19.2 11.8409 19.1368 11.6882 19.0243 11.5757C18.9118 11.4632 18.7592 11.4 18.6 11.4ZM18.6 16.2H9.00005C8.84092 16.2 8.68831 16.2632 8.57579 16.3757C8.46326 16.4882 8.40005 16.6409 8.40005 16.8C8.40005 16.9591 8.46326 17.1117 8.57579 17.2243C8.68831 17.3368 8.84092 17.4 9.00005 17.4H18.6C18.7592 17.4 18.9118 17.3368 19.0243 17.2243C19.1368 17.1117 19.2 16.9591 19.2 16.8C19.2 16.6409 19.1368 16.4882 19.0243 16.3757C18.9118 16.2632 18.7592 16.2 18.6 16.2ZM5.70005 6.29999C5.52205 6.29999 5.34804 6.35277 5.20004 6.45167C5.05203 6.55056 4.93668 6.69112 4.86856 6.85557C4.80044 7.02003 4.78262 7.20099 4.81734 7.37557C4.85207 7.55015 4.93779 7.71052 5.06365 7.83638C5.18952 7.96225 5.34989 8.04797 5.52447 8.08269C5.69905 8.11742 5.88001 8.0996 6.04446 8.03148C6.20892 7.96336 6.34948 7.848 6.44837 7.7C6.54727 7.552 6.60005 7.37799 6.60005 7.19999C6.60005 6.96129 6.50523 6.73237 6.33645 6.56359C6.16766 6.39481 5.93874 6.29999 5.70005 6.29999ZM5.70005 11.1C5.52205 11.1 5.34804 11.1528 5.20004 11.2517C5.05203 11.3506 4.93668 11.4911 4.86856 11.6556C4.80044 11.82 4.78262 12.001 4.81734 12.1756C4.85207 12.3502 4.93779 12.5105 5.06365 12.6364C5.18952 12.7623 5.34989 12.848 5.52447 12.8827C5.69905 12.9174 5.88001 12.8996 6.04446 12.8315C6.20892 12.7634 6.34948 12.648 6.44837 12.5C6.54727 12.352 6.60005 12.178 6.60005 12C6.60005 11.7613 6.50523 11.5324 6.33645 11.3636C6.16766 11.1948 5.93874 11.1 5.70005 11.1ZM5.70005 15.9C5.52205 15.9 5.34804 15.9528 5.20004 16.0517C5.05203 16.1506 4.93668 16.2911 4.86856 16.4556C4.80044 16.62 4.78262 16.801 4.81734 16.9756C4.85207 17.1502 4.93779 17.3105 5.06365 17.4364C5.18952 17.5623 5.34989 17.648 5.52447 17.6827C5.69905 17.7174 5.88001 17.6996 6.04446 17.6315C6.20892 17.5634 6.34948 17.448 6.44837 17.3C6.54727 17.152 6.60005 16.978 6.60005 16.8C6.60005 16.5613 6.50523 16.3324 6.33645 16.1636C6.16766 15.9948 5.93874 15.9 5.70005 15.9Z" fill="#1E1E1E"/>
</svg>
