<svg width="24" height="24" viewBox="0 0 24 24" fill="none" xmlns="http://www.w3.org/2000/svg">
<path d="M6.99996 19.5V17.8333H11.1666V15.3333H5.33329C4.87496 15.3333 4.4826 15.1701 4.15621 14.8438C3.82982 14.5174 3.66663 14.125 3.66663 13.6667V6.16667C3.66663 5.70833 3.82982 5.31597 4.15621 4.98958C4.4826 4.66319 4.87496 4.5 5.33329 4.5H18.6666C19.125 4.5 19.5173 4.66319 19.8437 4.98958C20.1701 5.31597 20.3333 5.70833 20.3333 6.16667V13.6667C20.3333 14.125 20.1701 14.5174 19.8437 14.8438C19.5173 15.1701 19.125 15.3333 18.6666 15.3333H12.8333V17.8333H17V19.5H6.99996Z" fill="#1E1E1E"/>
</svg>
