<svg width="24" height="24" viewBox="0 0 24 24" fill="none" xmlns="http://www.w3.org/2000/svg">
<path d="M6.16667 19.5C5.70833 19.5 5.31597 19.3368 4.98958 19.0104C4.66319 18.684 4.5 18.2917 4.5 17.8333V6.16667C4.5 5.70833 4.66319 5.31597 4.98958 4.98958C5.31597 4.66319 5.70833 4.5 6.16667 4.5H17.8333C18.2917 4.5 18.684 4.66319 19.0104 4.98958C19.3368 5.31597 19.5 5.70833 19.5 6.16667V14.5L14.5 19.5H6.16667ZM13.6667 17.8333L17.8333 13.6667H13.6667V17.8333ZM7.83333 13.6667H12V12H7.83333V13.6667ZM7.83333 10.3333H16.1667V8.66667H7.83333V10.3333Z" fill="#1E1E1E"/>
</svg>
