<svg width="24" height="24" viewBox="0 0 24 24" fill="none" xmlns="http://www.w3.org/2000/svg">
<path d="M6.99998 20C6.33331 20 5.76664 19.7667 5.29998 19.3C4.83331 18.8333 4.59998 18.2667 4.59998 17.6V15.2H6.99998V4H19V17.6C19 18.2667 18.7666 18.8333 18.3 19.3C17.8333 19.7667 17.2666 20 16.6 20H6.99998ZM16.6 18.4C16.8266 18.4 17.0166 18.3233 17.17 18.17C17.3233 18.0167 17.4 17.8267 17.4 17.6V5.6H8.59998V15.2H15.8V17.6C15.8 17.8267 15.8766 18.0167 16.03 18.17C16.1833 18.3233 16.3733 18.4 16.6 18.4ZM9.39998 9.6V8H16.6V9.6H9.39998ZM9.39998 12V10.4H16.6V12H9.39998Z" fill="#1E1E1E"/>
</svg>
