<svg width="24" height="24" viewBox="0 0 24 24" fill="none" xmlns="http://www.w3.org/2000/svg">
<path d="M11.76 11.5701C12.08 11.4301 12.45 11.5801 12.58 11.9001L14.3 15.9401C14.39 16.1301 14.37 16.3601 14.25 16.5301C14.14 16.7001 13.94 16.8101 13.73 16.8101H11.74C11.4 16.8101 11.12 16.5301 11.12 16.1901C11.12 15.8501 11.4 15.5701 11.74 15.5701H12.78L11.43 12.3901C11.29 12.0701 11.44 11.7001 11.76 11.5701Z" fill="#1E1E1E"/>
<path d="M9.08 13.0301C9.88081 13.0301 10.53 12.0988 10.53 10.9501C10.53 9.80131 9.88081 8.87006 9.08 8.87006C8.27919 8.87006 7.63 9.80131 7.63 10.9501C7.63 12.0988 8.27919 13.0301 9.08 13.0301Z" fill="#1E1E1E"/>
<path d="M16.37 10.9501C16.37 12.1001 15.72 13.0301 14.92 13.0301C14.12 13.0301 13.47 12.1001 13.47 10.9501C13.47 9.80006 14.12 8.87006 14.92 8.87006C15.72 8.87006 16.37 9.80006 16.37 10.9501Z" fill="#1E1E1E"/>
<path fill-rule="evenodd" clip-rule="evenodd" d="M6.5 4.50006H17.5C18.6 4.50006 19.5 5.40006 19.5 6.50006V17.5001C19.5 18.6001 18.6 19.5001 17.5 19.5001H6.5C5.4 19.5001 4.5 18.6001 4.5 17.5001V6.50006C4.5 5.40006 5.4 4.50006 6.5 4.50006ZM6.17 17.8301H17.84V7.20006C15.97 9.02006 9.19 8.66006 9.1 6.16006H8.59C8.56 7.57006 7.38 8.29006 6.17 8.32006V17.8301Z" fill="#1E1E1E"/>
</svg>
