<svg width="24" height="24" viewBox="0 0 24 24" fill="none" xmlns="http://www.w3.org/2000/svg">
<path d="M12 16.1667C13.1528 16.1667 14.1354 15.7604 14.9479 14.9479C15.7604 14.1354 16.1667 13.1528 16.1667 12C16.1667 10.8472 15.7604 9.8646 14.9479 9.0521C14.1354 8.2396 13.1528 7.83335 12 7.83335C10.8472 7.83335 9.8646 8.2396 9.0521 9.0521C8.2396 9.8646 7.83335 10.8472 7.83335 12C7.83335 13.1528 8.2396 14.1354 9.0521 14.9479C9.8646 15.7604 10.8472 16.1667 12 16.1667ZM12 20.3334C10.8472 20.3334 9.76391 20.1146 8.75002 19.6771C7.73613 19.2396 6.85419 18.6459 6.10419 17.8959C5.35419 17.1459 4.76044 16.2639 4.32294 15.25C3.88544 14.2361 3.66669 13.1528 3.66669 12C3.66669 10.8472 3.88544 9.76391 4.32294 8.75002C4.76044 7.73613 5.35419 6.85419 6.10419 6.10419C6.85419 5.35419 7.73613 4.76044 8.75002 4.32294C9.76391 3.88544 10.8472 3.66669 12 3.66669C13.1528 3.66669 14.2361 3.88544 15.25 4.32294C16.2639 4.76044 17.1459 5.35419 17.8959 6.10419C18.6459 6.85419 19.2396 7.73613 19.6771 8.75002C20.1146 9.76391 20.3334 10.8472 20.3334 12C20.3334 13.1528 20.1146 14.2361 19.6771 15.25C19.2396 16.2639 18.6459 17.1459 17.8959 17.8959C17.1459 18.6459 16.2639 19.2396 15.25 19.6771C14.2361 20.1146 13.1528 20.3334 12 20.3334ZM12 18.6667C13.8611 18.6667 15.4375 18.0209 16.7292 16.7292C18.0209 15.4375 18.6667 13.8611 18.6667 12C18.6667 10.1389 18.0209 8.56252 16.7292 7.27085C15.4375 5.97919 13.8611 5.33335 12 5.33335C10.1389 5.33335 8.56252 5.97919 7.27085 7.27085C5.97919 8.56252 5.33335 10.1389 5.33335 12C5.33335 13.8611 5.97919 15.4375 7.27085 16.7292C8.56252 18.0209 10.1389 18.6667 12 18.6667Z" fill="#1E1E1E"/>
</svg>
