<svg width="24" height="24" viewBox="0 0 24 24" fill="none" xmlns="http://www.w3.org/2000/svg">
<path fill-rule="evenodd" clip-rule="evenodd" d="M18.1733 14.1533C17.8433 13.8233 17.4533 13.6633 16.9933 13.6633H12.7933C13.1233 10.3333 15.4933 10.1233 15.4933 7.16333C15.4933 5.23333 13.9233 3.66333 11.9933 3.66333C10.0633 3.66333 8.49325 5.23333 8.49325 7.16333C8.49325 10.1233 10.8733 10.3333 11.1933 13.6633H7.00325C6.54325 13.6633 6.15325 13.8233 5.82325 14.1533C5.49325 14.4833 5.33325 14.8733 5.33325 15.3333V20.3333H18.6633V15.3333C18.6633 14.8733 18.5033 14.4833 18.1733 14.1533ZM17.0033 16.9933H7.00325V15.3233H17.0033V16.9933Z" fill="#1E1E1E"/>
</svg>
