<svg width="24" height="24" viewBox="0 0 24 24" fill="none" xmlns="http://www.w3.org/2000/svg">
<path d="M20.3386 9.69449C20.2635 9.46389 20.1219 9.26064 19.9316 9.11036C19.7413 8.96008 19.5108 8.86949 19.2691 8.84999L14.8441 8.49299L13.1356 4.36124C13.0432 4.13611 12.8859 3.94353 12.6838 3.808C12.4816 3.67246 12.2438 3.6001 12.0004 3.6001C11.7571 3.6001 11.5192 3.67246 11.3171 3.808C11.115 3.94353 10.9577 4.13611 10.8653 4.36124L9.1583 8.49224L4.73105 8.84999C4.48893 8.87047 4.25824 8.96194 4.06788 9.11295C3.87752 9.26395 3.73595 9.46778 3.66092 9.69888C3.58589 9.92999 3.58072 10.1781 3.64607 10.4121C3.71143 10.6462 3.84439 10.8557 4.0283 11.0145L7.4033 13.9267L6.37505 18.2812C6.31754 18.5178 6.33162 18.7661 6.4155 18.9947C6.49938 19.2232 6.64928 19.4217 6.84617 19.5649C7.04306 19.7081 7.27805 19.7896 7.52133 19.799C7.76461 19.8084 8.0052 19.7453 8.21255 19.6177L12.0001 17.2867L15.7898 19.6177C15.9972 19.7438 16.2373 19.8057 16.4798 19.7956C16.7224 19.7855 16.9565 19.7038 17.1527 19.5609C17.3489 19.418 17.4985 19.2203 17.5825 18.9926C17.6666 18.7648 17.6814 18.5174 17.6251 18.2812L16.5931 13.926L19.9681 11.0137C20.1535 10.8552 20.2876 10.6452 20.3536 10.4104C20.4195 10.1755 20.4143 9.92637 20.3386 9.69449ZM19.1881 10.1047L15.5356 13.2547C15.4523 13.3265 15.3903 13.4198 15.3564 13.5245C15.3226 13.6291 15.3181 13.741 15.3436 13.848L16.4596 18.558C16.4624 18.5645 16.4627 18.5718 16.4604 18.5785C16.458 18.5852 16.4531 18.5908 16.4468 18.594C16.4333 18.6045 16.4296 18.6022 16.4183 18.594L12.3143 16.0702C12.2198 16.0121 12.111 15.9814 12.0001 15.9814C11.8891 15.9814 11.7803 16.0121 11.6858 16.0702L7.5818 18.5955C7.57055 18.6022 7.56755 18.6045 7.5533 18.5955C7.54697 18.5923 7.54212 18.5867 7.53975 18.58C7.53738 18.5733 7.53766 18.566 7.54055 18.5595L8.65655 13.8495C8.68198 13.7425 8.67753 13.6306 8.64367 13.526C8.60981 13.4213 8.54785 13.328 8.46455 13.2562L4.81205 10.1062C4.80305 10.0987 4.7948 10.092 4.8023 10.0687C4.8098 10.0455 4.8158 10.0485 4.82705 10.047L9.62105 9.65999C9.73101 9.65056 9.83623 9.61099 9.92515 9.54562C10.0141 9.48025 10.0832 9.39163 10.1251 9.28949L11.9716 4.81874C11.9776 4.80599 11.9798 4.79999 11.9978 4.79999C12.0158 4.79999 12.0181 4.80599 12.0241 4.81874L13.8751 9.28949C13.9173 9.39167 13.9869 9.4802 14.0762 9.54531C14.1655 9.61042 14.2711 9.64959 14.3813 9.65849L19.1753 10.0455C19.1866 10.0455 19.1933 10.0455 19.2001 10.0672C19.2068 10.089 19.2001 10.0972 19.1881 10.1047Z" fill="#1E1E1E"/>
</svg>
