<svg width="24" height="24" viewBox="0 0 24 24" fill="none" xmlns="http://www.w3.org/2000/svg">
<path d="M9.5 4.91667V3.25H14.5V4.91667H9.5ZM11.1667 14.0833H12.8333V9.08333H11.1667V14.0833ZM12 20.75C10.9722 20.75 10.0035 20.5521 9.09375 20.1562C8.18403 19.7604 7.38889 19.2222 6.70833 18.5417C6.02778 17.8611 5.48958 17.066 5.09375 16.1562C4.69792 15.2465 4.5 14.2778 4.5 13.25C4.5 12.2222 4.69792 11.2535 5.09375 10.3437C5.48958 9.43403 6.02778 8.63889 6.70833 7.95833C7.38889 7.27778 8.18403 6.73958 9.09375 6.34375C10.0035 5.94792 10.9722 5.75 12 5.75C12.8611 5.75 13.6875 5.88889 14.4792 6.16667C15.2708 6.44444 16.0139 6.84722 16.7083 7.375L17.875 6.20833L19.0417 7.375L17.875 8.54167C18.4028 9.23611 18.8056 9.97917 19.0833 10.7708C19.3611 11.5625 19.5 12.3889 19.5 13.25C19.5 14.2778 19.3021 15.2465 18.9062 16.1562C18.5104 17.066 17.9722 17.8611 17.2917 18.5417C16.6111 19.2222 15.816 19.7604 14.9062 20.1562C13.9965 20.5521 13.0278 20.75 12 20.75Z" fill="#1E1E1E"/>
</svg>
