<svg width="24" height="24" viewBox="0 0 24 24" fill="none" xmlns="http://www.w3.org/2000/svg">
<path d="M10.75 20.3333C9.70833 20.3333 8.73264 20.1388 7.82292 19.75C6.91319 19.3611 6.11806 18.8263 5.4375 18.1458C4.75694 17.4652 4.22222 16.6701 3.83333 15.7604C3.44444 14.8507 3.25 13.875 3.25 12.8333C3.25 11.7916 3.44444 10.8159 3.83333 9.90621C4.22222 8.99649 4.75694 8.20135 5.4375 7.52079C6.11806 6.84024 6.91319 6.30551 7.82292 5.91663C8.73264 5.52774 9.70833 5.33329 10.75 5.33329C11.0417 5.33329 11.3229 5.35065 11.5938 5.38538C11.8646 5.4201 12.1389 5.47218 12.4167 5.54163V7.24996C12.1389 7.16663 11.8646 7.10413 11.5938 7.06246C11.3229 7.02079 11.0417 6.99996 10.75 6.99996C9.11111 6.99996 7.72917 7.56246 6.60417 8.68746C5.47917 9.81246 4.91667 11.1944 4.91667 12.8333C4.91667 14.4722 5.47917 15.8541 6.60417 16.9791C7.72917 18.1041 9.11111 18.6666 10.75 18.6666C12.3889 18.6666 13.7708 18.1041 14.8958 16.9791C16.0208 15.8541 16.5833 14.4722 16.5833 12.8333C16.5833 12.6805 16.5764 12.5416 16.5625 12.4166C16.5486 12.2916 16.5278 12.1527 16.5 12H18.2083C18.2361 12.1527 18.25 12.2916 18.25 12.4166V12.8333C18.25 13.875 18.0556 14.8507 17.6667 15.7604C17.2778 16.6701 16.7431 17.4652 16.0625 18.1458C15.3819 18.8263 14.5868 19.3611 13.6771 19.75C12.7674 20.1388 11.7917 20.3333 10.75 20.3333ZM13.0833 16.3333L9.91667 13.1666V8.66663H11.5833V12.5L14.25 15.1666L13.0833 16.3333ZM16.5833 10.3333V7.83329H14.0833V6.16663H16.5833V3.66663H18.25V6.16663H20.75V7.83329H18.25V10.3333H16.5833Z" fill="#1E1E1E"/>
</svg>
