<svg width="24" height="24" viewBox="0 0 24 24" fill="none" xmlns="http://www.w3.org/2000/svg">
<path d="M7.16016 5.15997V6.8299H11.8301V5.15997H13.5V6.8299H14.3301C14.79 6.82992 15.1798 6.99021 15.5098 7.32013C15.5698 7.39013 15.6199 7.45032 15.6699 7.52032L12.3604 10.8299H4.66992V17.16L4.66016 17.1697H12.3496L14.0195 18.8397H4.66016C4.20034 18.8397 3.81039 18.6801 3.48047 18.3504C3.15047 18.0204 2.99023 17.6297 2.99023 17.1697V8.49982C2.9903 8.03994 3.15054 7.65006 3.48047 7.32013C3.81042 6.99028 4.20026 6.8299 4.66016 6.8299H5.49023V5.15997H7.16016Z" fill="#1E1E1E"/>
<path d="M17 10.9901L14.8604 13.16H21.6699V14.8201H14.8604L17 16.9901L15.8398 18.16L11.6699 13.9901L15.8398 9.82013L17 10.9901Z" fill="#1E1E1E"/>
</svg>
