<svg width="24" height="24" viewBox="0 0 24 24" fill="none" xmlns="http://www.w3.org/2000/svg">
<path d="M12.1602 5.15997V6.8299H16.8301V5.15997H18.5V6.8299H19.3301C19.79 6.82991 20.1798 6.99015 20.5098 7.32013H20.5C20.8299 7.65009 20.9902 8.03989 20.9902 8.49982V17.16C20.9902 17.6199 20.8299 18.0097 20.5 18.3397C20.1701 18.6696 19.7802 18.8298 19.3203 18.8299H9.95996L11.6299 17.16H19.3203V10.8299H11.6299L8.32031 7.52032C8.37031 7.45032 8.42047 7.38013 8.48047 7.32013C8.81045 6.99019 9.2002 6.8299 9.66016 6.8299H10.4902V5.15997H12.1602Z" fill="#1E1E1E"/>
<path d="M12.3301 13.9998L8.16016 18.1697L7 16.9998L9.13965 14.8299H2.33008V13.1697H9.13965L7 10.9998L8.16016 9.8299L12.3301 13.9998Z" fill="#1E1E1E"/>
</svg>
