<svg width="24" height="24" viewBox="0 0 24 24" fill="none" xmlns="http://www.w3.org/2000/svg">
<path d="M7.34269 18.5302C6.64825 18.5302 6.05797 18.2871 5.57186 17.801C5.08575 17.3149 4.84269 16.7246 4.84269 16.0302H3.17603V6.86351C3.17603 6.40517 3.33922 6.01281 3.66561 5.68642C3.992 5.36003 4.38436 5.19684 4.84269 5.19684H16.5094V8.53017H19.0094L21.5094 11.8635V16.0302H19.8427C19.8427 16.7246 19.5996 17.3149 19.1135 17.801C18.6274 18.2871 18.0371 18.5302 17.3427 18.5302C16.6482 18.5302 16.058 18.2871 15.5719 17.801C15.0857 17.3149 14.8427 16.7246 14.8427 16.0302H9.84269C9.84269 16.7246 9.59964 17.3149 9.11353 17.801C8.62741 18.2871 8.03714 18.5302 7.34269 18.5302ZM7.34269 16.8635C7.5788 16.8635 7.77672 16.7836 7.93644 16.6239C8.09616 16.4642 8.17603 16.2663 8.17603 16.0302C8.17603 15.7941 8.09616 15.5961 7.93644 15.4364C7.77672 15.2767 7.5788 15.1968 7.34269 15.1968C7.10658 15.1968 6.90866 15.2767 6.74894 15.4364C6.58922 15.5961 6.50936 15.7941 6.50936 16.0302C6.50936 16.2663 6.58922 16.4642 6.74894 16.6239C6.90866 16.7836 7.10658 16.8635 7.34269 16.8635ZM17.3427 16.8635C17.5788 16.8635 17.7767 16.7836 17.9364 16.6239C18.0962 16.4642 18.176 16.2663 18.176 16.0302C18.176 15.7941 18.0962 15.5961 17.9364 15.4364C17.7767 15.2767 17.5788 15.1968 17.3427 15.1968C17.1066 15.1968 16.9087 15.2767 16.7489 15.4364C16.5892 15.5961 16.5094 15.7941 16.5094 16.0302C16.5094 16.2663 16.5892 16.4642 16.7489 16.6239C16.9087 16.7836 17.1066 16.8635 17.3427 16.8635ZM16.5094 12.6968H20.051L18.176 10.1968H16.5094V12.6968Z" fill="#1E1E1E"/>
</svg>
