<svg width="24" height="24" viewBox="0 0 24 24" fill="none" xmlns="http://www.w3.org/2000/svg">
<path d="M17 13.6667V11.1667H14.5V9.50004H17V7.00004H18.6666V9.50004H21.1666V11.1667H18.6666V13.6667H17ZM9.49998 12C8.58331 12 7.79859 11.6737 7.14581 11.0209C6.49304 10.3681 6.16665 9.58337 6.16665 8.66671C6.16665 7.75004 6.49304 6.96532 7.14581 6.31254C7.79859 5.65976 8.58331 5.33337 9.49998 5.33337C10.4166 5.33337 11.2014 5.65976 11.8541 6.31254C12.5069 6.96532 12.8333 7.75004 12.8333 8.66671C12.8333 9.58337 12.5069 10.3681 11.8541 11.0209C11.2014 11.6737 10.4166 12 9.49998 12ZM2.83331 18.6667V16.3334C2.83331 15.8612 2.95484 15.4271 3.1979 15.0313C3.44095 14.6355 3.76387 14.3334 4.16665 14.125C5.02776 13.6945 5.90276 13.3716 6.79165 13.1563C7.68054 12.941 8.58331 12.8334 9.49998 12.8334C10.4166 12.8334 11.3194 12.941 12.2083 13.1563C13.0972 13.3716 13.9722 13.6945 14.8333 14.125C15.2361 14.3334 15.559 14.6355 15.8021 15.0313C16.0451 15.4271 16.1666 15.8612 16.1666 16.3334V18.6667H2.83331Z" fill="#1E1E1E"/>
</svg>
