<svg width="24" height="24" viewBox="0 0 24 24" fill="none" xmlns="http://www.w3.org/2000/svg">
<path fill-rule="evenodd" clip-rule="evenodd" d="M20.16 16.5102L13.6 5.1202C13.44 4.8402 13.2 4.6102 12.92 4.4502C12.64 4.2902 12.32 4.2002 12 4.2002C11.68 4.2002 11.36 4.2802 11.08 4.4502C10.8 4.6202 10.57 4.8402 10.4 5.1202L3.83998 16.5102C3.67998 16.7802 3.59998 17.0902 3.59998 17.4002C3.59998 17.7102 3.67998 18.0202 3.83998 18.2902C3.99998 18.5702 4.23998 18.8002 4.51998 18.9602C4.79998 19.1202 5.11998 19.2002 5.43998 19.2002H18.56C18.88 19.2002 19.2 19.1202 19.48 18.9602C19.76 18.8002 19.99 18.5702 20.16 18.2902C20.32 18.0202 20.4 17.7102 20.4 17.4002C20.4 17.0902 20.32 16.7802 20.16 16.5102ZM12.59 16.4602C12.43 16.6202 12.23 16.7002 12 16.7002C11.77 16.7002 11.57 16.6202 11.41 16.4602C11.25 16.3002 11.17 16.1002 11.17 15.8702C11.17 15.6402 11.25 15.4402 11.41 15.2802C11.57 15.1202 11.77 15.0402 12 15.0402C12.23 15.0402 12.43 15.1202 12.59 15.2802C12.75 15.4402 12.83 15.6402 12.83 15.8702C12.83 16.1002 12.75 16.3002 12.59 16.4602ZM12.83 14.2002H11.16V10.0302H12.83V14.2002Z" fill="#1E1E1E"/>
</svg>
